<?xml version="1.0" standalone="no"?>
<!DOCTYPE svg PUBLIC "-//W3C//DTD SVG 20010904//EN"
 "http://www.w3.org/TR/2001/REC-SVG-20010904/DTD/svg10.dtd">
<svg version="1.0" xmlns="http://www.w3.org/2000/svg"
 width="1080.000000pt" height="1080.000000pt" viewBox="0 0 1080.000000 1080.000000"
 preserveAspectRatio="xMidYMid meet">
<metadata>
Created by potrace 1.14, written by Peter Selinger 2001-2017
</metadata>
<g transform="translate(0.000000,1080.000000) scale(0.100000,-0.100000)"
fill="#000000" stroke="none">
<path d="M5325 7771 c-16 -10 -582 -572 -1257 -1247 -1101 -1103 -1227 -1233
-1234 -1267 -14 -80 11 -140 76 -184 32 -23 39 -23 326 -23 l294 0 0 -958 0
-958 23 -44 c16 -33 34 -51 67 -68 l45 -22 1740 2 c1720 3 1740 3 1774 23 19
11 43 33 55 48 21 28 21 30 24 1004 l2 975 288 -2 c158 -1 295 -2 304 -1 26 2
87 60 103 99 19 44 19 83 0 130 -11 25 -126 148 -355 377 l-340 340 -2 482
c-3 469 -4 482 -24 509 -11 15 -33 37 -48 48 -27 20 -40 21 -381 21 -343 0
-354 -1 -382 -21 -26 -20 -66 -70 -76 -97 -3 -7 -200 183 -439 421 l-434 432
-59 0 c-42 0 -69 -6 -90 -19z m614 -842 c-90 -148 -419 -669 -525 -831 -51
-80 -96 -138 -105 -138 -31 0 -192 -60 -223 -83 -17 -13 -73 -46 -123 -73 -95
-50 -113 -73 -74 -94 33 -17 91 -11 152 16 33 15 62 24 65 21 21 -21 -18 -73
-157 -207 -151 -147 -168 -172 -134 -200 12 -10 22 -10 39 -2 20 9 124 92 181
145 26 24 75 50 82 43 3 -3 -7 -24 -21 -48 -164 -264 -171 -279 -144 -306 27
-27 48 -10 140 120 51 72 99 142 106 155 7 13 19 23 27 23 8 0 15 -1 15 -3 0
-17 -44 -196 -60 -245 -24 -72 -23 -100 3 -116 33 -21 50 6 95 145 50 156 69
202 81 195 4 -3 11 -59 15 -126 8 -140 11 -150 41 -150 34 0 45 44 45 179 0
110 2 121 41 226 22 61 45 133 51 160 12 56 37 110 78 170 15 22 54 81 85 130
66 102 297 457 423 649 l84 129 142 -142 c78 -77 145 -141 149 -141 4 0 7 81
7 180 l0 180 290 0 290 0 0 -187 c-1 -150 -3 -185 -13 -172 -20 26 -49 36
-124 44 l-72 7 -21 -34 c-11 -18 -34 -69 -50 -113 -23 -60 -46 -97 -91 -149
-57 -65 -69 -94 -41 -104 6 -2 40 25 74 59 63 64 81 66 54 7 -33 -73 -66 -158
-66 -172 0 -16 22 -27 37 -18 6 4 29 45 52 92 23 47 49 92 57 100 13 13 14 9
9 -35 -25 -215 -25 -230 10 -223 13 2 23 23 36 78 10 41 18 89 19 105 0 17 4
37 10 45 12 19 15 10 34 -104 17 -96 25 -112 52 -102 15 6 16 18 9 124 -12
170 -9 212 15 197 6 -4 10 -85 10 -213 l0 -207 317 -317 c217 -217 312 -318
298 -318 -11 0 -56 9 -100 21 -117 30 -207 36 -224 15 -29 -35 -11 -91 32 -99
12 -2 -45 -5 -127 -6 l-148 -1 5 33 c3 17 9 58 13 90 3 32 14 68 24 80 18 21
18 21 35 -41 17 -61 50 -102 81 -102 22 0 25 17 14 82 -7 35 -14 86 -16 113
-7 66 -42 179 -68 218 -15 22 -40 38 -86 55 -110 40 -124 40 -165 -4 -20 -22
-51 -63 -68 -92 -18 -29 -41 -68 -52 -87 -12 -18 -45 -53 -75 -76 -90 -69
-120 -101 -120 -126 0 -38 39 -28 120 32 117 85 119 75 15 -79 -41 -61 -75
-116 -75 -122 0 -19 28 -36 49 -29 10 3 37 34 60 68 49 75 117 154 125 146 3
-3 0 -25 -8 -50 -70 -221 -77 -251 -65 -265 20 -24 52 -12 71 26 9 19 33 83
53 142 22 65 41 105 48 101 6 -4 8 -48 3 -129 -6 -115 -5 -125 14 -144 19 -19
20 -33 20 -254 0 -231 0 -234 -21 -239 -21 -6 -22 -10 -15 -89 4 -46 9 -107
13 -137 10 -85 -12 -62 -96 105 -72 141 -78 149 -108 152 -50 5 -52 -25 -8
-116 48 -101 97 -233 89 -241 -3 -3 -66 56 -138 132 -84 87 -139 137 -152 137
-24 0 -44 -18 -44 -39 0 -17 126 -178 190 -245 79 -81 46 -76 -111 19 -127 77
-161 87 -183 53 -19 -32 2 -52 199 -185 92 -62 155 -121 155 -144 0 -20 -19
-19 -78 2 -13 5 -43 9 -68 9 -35 0 -51 -6 -71 -26 -33 -33 -24 -42 87 -79 47
-15 103 -38 125 -50 22 -13 84 -31 138 -40 l97 -18 0 -74 c0 -54 -3 -73 -13
-73 -26 0 -50 -39 -54 -87 -3 -32 3 -70 16 -112 24 -74 26 -91 9 -91 -37 0
-89 55 -209 217 -72 98 -140 186 -151 196 -25 21 -52 22 -73 1 -24 -25 -13
-55 65 -174 37 -58 80 -127 95 -155 39 -75 11 -70 -86 14 -206 179 -282 221
-309 171 -15 -28 -5 -54 33 -86 18 -14 92 -81 165 -147 117 -107 151 -147 124
-147 -17 0 -199 69 -275 104 -110 51 -164 45 -155 -16 2 -18 25 -34 108 -75
l105 -52 -242 0 c-230 -1 -244 0 -263 19 -13 13 -33 20 -57 20 -76 0 -283 24
-280 33 4 12 62 32 170 58 107 26 135 45 117 78 -13 26 -9 26 -170 -9 -211
-47 -212 -41 -12 84 33 21 43 32 40 49 -5 36 -53 25 -158 -35 -85 -49 -105
-57 -185 -67 -99 -14 -188 -41 -217 -68 -16 -14 -19 -27 -15 -57 3 -21 3 -53
0 -72 l-6 -34 -99 0 -99 0 34 63 c19 34 101 179 182 322 81 143 159 280 173
305 95 169 216 373 230 389 9 10 59 33 111 51 51 18 106 44 120 56 34 29 188
124 200 124 22 0 30 27 15 48 -22 32 -80 29 -159 -8 -35 -16 -67 -30 -71 -30
-11 0 7 53 29 84 11 17 76 88 144 157 68 70 123 133 123 141 0 8 -6 22 -13 33
-18 24 -52 15 -97 -27 -129 -121 -184 -168 -196 -168 -21 0 -18 9 31 87 60 97
125 228 125 252 0 19 -26 41 -49 41 -6 0 -28 -26 -48 -57 -114 -181 -177 -272
-183 -268 -8 5 4 92 27 185 37 154 35 180 -12 180 -35 0 -41 -15 -100 -242
-39 -147 -50 -143 -65 27 -7 66 -16 126 -22 132 -16 20 -36 15 -54 -12 -14
-22 -16 -43 -10 -149 l7 -124 -39 -124 c-22 -67 -44 -148 -50 -179 -8 -44 -39
-104 -140 -275 -71 -121 -169 -286 -217 -369 -48 -82 -95 -161 -105 -175 -9
-14 -25 -41 -35 -60 -9 -19 -67 -119 -128 -222 l-112 -188 -272 0 -273 0 0
100 c0 90 4 109 35 192 38 102 44 155 19 165 -23 9 -38 -12 -79 -109 -21 -49
-42 -88 -47 -88 -6 0 -6 56 -2 146 7 153 5 163 -37 164 -23 0 -28 -16 -39
-145 -8 -93 -24 -176 -30 -155 -1 3 -20 75 -43 160 -36 133 -45 155 -63 158
-42 6 -48 -19 -29 -130 9 -56 21 -112 26 -125 11 -30 12 -63 1 -63 -7 0 -20
21 -106 169 l-37 63 3 125 3 125 50 -66 c52 -70 68 -78 85 -47 21 41 11 95
-30 164 -45 74 -48 87 -22 87 36 0 119 -52 232 -145 149 -122 193 -150 218
-136 25 14 34 38 22 60 -5 10 -63 66 -129 125 -157 139 -163 168 -21 100 41
-20 120 -54 175 -75 114 -46 145 -44 145 10 0 29 -7 34 -187 124 -103 51 -189
99 -191 107 -4 11 14 12 99 7 57 -4 139 -13 181 -22 90 -17 128 -9 128 27 0
49 -12 53 -272 93 -112 18 -130 23 -125 39 4 12 174 55 220 56 42 0 67 17 67
46 0 43 -35 50 -163 30 -150 -23 -171 -23 -319 8 -70 14 -137 26 -148 26 -20
0 -20 6 -20 335 l0 335 -347 2 -348 3 288 290 c159 160 283 279 276 265 -7
-14 -36 -52 -66 -84 -94 -105 -55 -137 43 -35 32 33 60 55 62 49 2 -6 -15 -53
-37 -104 -48 -109 -52 -139 -18 -134 17 2 32 25 69 101 26 53 52 97 58 97 12
0 12 3 -5 -135 -11 -92 -11 -112 1 -124 23 -25 41 4 58 97 8 48 17 98 18 112
5 45 23 22 36 -47 27 -141 26 -138 50 -141 l24 -4 -8 150 c-8 183 0 212 40
133 28 -55 67 -84 88 -63 8 8 8 15 1 24 -6 7 -22 50 -37 95 -44 142 -88 207
-144 216 -12 2 -24 5 -26 8 -3 3 25 35 62 72 l67 66 111 7 c101 6 120 4 215
-20 57 -15 120 -33 140 -41 19 -7 85 -21 146 -30 107 -17 113 -17 150 1 32 16
42 29 64 84 14 36 45 94 68 130 40 60 42 69 38 120 -5 70 -104 296 -156 358
-20 24 -45 54 -56 68 l-19 25 404 404 405 405 299 -299 299 -299 -64 -103z
m-1449 -239 c0 -5 -7 -10 -16 -10 -8 0 -12 5 -9 10 3 6 10 10 16 10 5 0 9 -4
9 -10z m-410 -409 c0 -5 -9 -11 -21 -14 -16 -4 -18 -3 -8 9 13 16 29 19 29 5z
m-337 -2888 c20 -45 37 -89 37 -97 0 -28 -19 -26 -54 5 -36 31 -36 32 -36 112
0 45 4 77 8 72 5 -6 25 -47 45 -92z m-33 -214 c0 -5 -4 -9 -10 -9 -5 0 -10 7
-10 16 0 8 5 12 10 9 6 -3 10 -10 10 -16z"/>
<path d="M5368 7183 c-8 -10 -39 -54 -68 -98 -29 -44 -68 -99 -87 -122 -38
-47 -70 -58 -58 -20 14 46 17 115 6 136 -23 42 -44 26 -75 -56 -59 -158 -66
-183 -72 -250 l-6 -69 63 -72 c42 -48 71 -72 85 -72 29 0 93 28 182 78 53 30
98 46 174 61 108 23 133 36 122 65 -6 16 -15 18 -61 12 -168 -19 -169 -19
-153 -3 8 8 62 40 120 70 116 60 134 77 108 104 -16 15 -23 14 -115 -30 -107
-50 -153 -65 -153 -49 0 5 47 54 105 108 58 55 105 104 105 110 0 6 -7 17 -16
24 -24 21 -54 3 -153 -87 -49 -46 -92 -83 -95 -83 -15 0 -2 31 49 116 61 102
70 144 32 144 -13 0 -31 -8 -39 -17z"/>
<path d="M6160 6283 c0 -10 18 -40 40 -68 22 -27 36 -51 31 -53 -5 -2 -43 18
-85 43 -74 46 -106 52 -106 21 0 -9 33 -38 74 -66 41 -27 77 -54 80 -59 3 -5
-40 2 -95 15 -125 30 -129 30 -129 0 0 -21 10 -26 95 -52 52 -15 95 -32 95
-36 0 -4 -37 -8 -82 -8 -94 0 -119 -10 -102 -37 9 -15 31 -19 125 -24 113 -6
153 -14 144 -29 -2 -4 -19 -10 -37 -14 -38 -8 -68 -33 -68 -58 0 -21 -6 -21
98 -3 89 16 172 47 195 73 8 10 23 44 33 76 l18 59 -38 33 c-20 18 -62 45 -92
60 -33 17 -73 50 -105 86 -50 58 -89 76 -89 41z"/>
<path d="M6134 5706 c-8 -21 1 -85 28 -209 20 -91 20 -123 -1 -101 -5 5 -35
54 -66 109 -32 55 -64 105 -73 112 -18 15 -52 0 -52 -22 0 -9 29 -74 65 -145
37 -73 68 -150 72 -175 6 -48 -4 -58 -28 -28 -47 57 -142 93 -155 60 -3 -8 16
-36 41 -63 25 -27 60 -68 76 -92 34 -48 139 -139 178 -153 18 -7 43 -6 88 5
34 9 71 16 81 16 39 0 53 33 63 147 5 59 6 122 3 138 -4 21 6 59 30 123 36 93
45 146 27 156 -19 12 -39 -7 -56 -52 -28 -73 -64 -142 -76 -142 -7 0 -9 51 -7
153 3 151 3 152 -19 155 -29 4 -43 -29 -43 -106 -1 -71 -22 -186 -34 -187 -5
0 -18 32 -27 70 -57 223 -63 240 -87 243 -13 2 -25 -3 -28 -12z"/>
<path d="M4170 5586 c0 -16 11 -32 33 -47 40 -28 111 -90 115 -101 7 -17 -39
-7 -144 32 -115 43 -147 46 -152 17 -5 -23 20 -42 83 -63 80 -27 177 -76 168
-84 -4 -4 -71 -5 -148 -1 -77 5 -148 4 -157 -1 -21 -10 -23 -31 -4 -47 15 -13
136 -30 216 -31 65 0 93 -13 64 -28 -11 -5 -64 -20 -119 -32 -102 -23 -138
-41 -128 -66 9 -23 36 -25 129 -8 158 28 207 32 239 20 l30 -12 -48 -28 c-52
-31 -87 -69 -87 -97 0 -31 14 -29 96 10 43 21 90 41 104 44 35 9 144 81 168
111 23 30 38 182 19 204 -18 22 -97 58 -182 82 -44 13 -98 36 -120 52 -22 16
-62 44 -89 63 -58 42 -86 45 -86 11z"/>
<path d="M4376 4978 c-11 -6 -50 -35 -88 -64 -99 -76 -137 -85 -99 -23 12 19
21 44 21 57 0 29 -29 41 -42 18 -5 -10 -30 -40 -54 -67 -57 -64 -97 -144 -91
-178 10 -52 36 -106 57 -120 20 -13 34 -13 119 2 78 13 109 14 169 5 52 -7 76
-8 84 0 21 21 -1 38 -66 51 -36 7 -66 16 -66 20 0 4 44 13 98 21 90 14 97 17
100 39 l4 24 -109 -7 -108 -6 100 51 c55 28 102 53 105 56 8 8 -18 38 -31 36
-15 -1 -86 -29 -151 -57 -21 -9 -38 -13 -38 -9 0 5 30 33 66 63 44 38 64 61
62 74 -4 24 -17 29 -42 14z"/>
<path d="M6346 4888 c-3 -13 -11 -65 -17 -115 -7 -51 -15 -93 -18 -93 -4 0
-16 35 -27 78 -16 63 -23 77 -39 77 -23 0 -25 -29 -10 -143 5 -42 3 -92 -5
-148 -18 -112 -10 -132 55 -157 86 -33 108 -33 166 3 41 25 119 87 199 157 3
3 -3 11 -13 18 -20 15 -68 6 -96 -18 -67 -58 -52 -4 35 124 41 61 73 117 70
125 -12 32 -45 12 -102 -61 -57 -73 -82 -93 -71 -57 3 9 20 59 38 109 26 74
31 95 21 105 -9 9 -17 9 -28 3 -12 -8 -55 -96 -95 -194 -6 -16 -13 -21 -19
-15 -7 7 -7 43 -1 103 6 51 7 99 4 107 -8 23 -42 17 -47 -8z"/>
<path d="M4820 4742 c-8 -3 -33 -17 -55 -31 -22 -15 -52 -33 -67 -40 -54 -28
-74 -138 -61 -345 9 -130 16 -144 56 -104 18 18 25 40 30 88 4 35 10 66 13 69
19 19 55 -67 118 -280 18 -62 35 -83 63 -77 27 5 27 38 -1 159 -14 60 -26 114
-26 119 0 24 19 6 45 -42 48 -88 115 -187 133 -197 22 -12 52 4 52 27 0 10 -6
26 -14 37 -29 43 -128 237 -122 242 7 7 53 -28 138 -107 49 -44 74 -61 90 -58
48 7 32 38 -73 144 -56 57 -100 107 -96 110 3 3 45 -13 93 -35 95 -45 121 -50
131 -25 10 27 -8 44 -102 93 -74 38 -108 65 -190 147 -97 98 -124 116 -155
106z"/>
<path d="M5794 4195 c-10 -26 4 -44 58 -71 107 -53 170 -96 159 -107 -10 -10
-154 6 -295 34 -41 8 -52 7 -67 -7 -45 -41 -20 -58 127 -88 163 -32 206 -45
201 -59 -2 -6 -65 -21 -143 -34 -76 -12 -161 -26 -189 -30 -42 -7 -51 -12 -53
-31 -7 -45 13 -53 107 -47 47 3 126 11 174 17 59 7 91 8 98 1 13 -13 -12 -28
-146 -87 -123 -54 -147 -71 -143 -99 7 -46 29 -43 209 23 256 92 336 93 230 2
-73 -63 -100 -123 -68 -150 10 -9 31 2 88 43 41 30 92 63 115 74 47 22 166
130 195 178 19 30 20 43 14 135 -4 57 -9 110 -11 118 -10 38 -121 69 -299 85
-68 7 -97 16 -191 61 -114 55 -160 66 -170 39z"/>
<path d="M4564 3887 c-3 -8 -13 -61 -23 -118 -16 -95 -19 -102 -29 -76 -7 15
-17 58 -22 95 -12 73 -20 88 -45 78 -12 -4 -15 -14 -11 -33 2 -16 8 -64 11
-108 l6 -80 -20 29 c-10 16 -27 46 -37 67 -11 25 -24 39 -36 39 -25 0 -23 -17
11 -91 21 -44 33 -93 41 -158 13 -112 21 -131 58 -131 15 0 42 -4 61 -10 23
-6 40 -6 55 2 33 16 96 80 113 113 9 17 29 46 44 66 16 20 29 42 29 48 0 24
-47 10 -80 -24 -18 -19 -37 -32 -42 -29 -12 8 -5 37 38 153 20 51 33 100 30
107 -13 33 -37 10 -76 -72 -23 -48 -43 -84 -46 -82 -2 3 0 49 6 102 9 74 8
101 -1 112 -14 18 -28 18 -35 1z"/>
</g>
</svg>
